<svg width="20" height="20" viewBox="0 0 20 20" fill="none" xmlns="http://www.w3.org/2000/svg">
<path d="M6.25 7.21413V10.1014L9.9344 12.5L18.75 5.7484C18.4385 5.03323 18.0479 4.36514 17.5886 3.75L9.9344 9.61278L6.25 7.21413Z" fill="#21A038"/>
<path d="M17.6933 9.79221C17.6961 9.85953 17.6961 9.92977 17.6961 9.99709C17.6961 14.2376 14.2449 17.6851 10.006 17.6851C5.7672 17.6851 2.31243 14.2376 2.31243 9.99709C2.31243 5.75654 5.76436 2.30906 10.0032 2.30906C11.6105 2.30906 13.1033 2.8036 14.3387 3.65229L16.2822 2.21832C14.5669 0.831169 12.3803 0 10.0004 0C4.47627 0 0 4.47765 0 10C0 15.5224 4.47911 20 10.0004 20C15.5244 20 20 15.5224 20 10C20 9.38833 19.9446 8.78843 19.8393 8.20897L17.6933 9.79221Z" fill="#21A038"/>
</svg>
