<svg width="20" height="24" fill="none" xmlns="http://www.w3.org/2000/svg"><path d="m0 5.224 2.966 5.195v3.169L.003 18.773 0 5.223Z" fill="#5B57A2"/><path d="m11.387 8.529 2.779-1.67 5.687-.005-8.466 5.083V8.529Z" fill="#D90751"/><path d="m11.371 5.193.016 6.878-2.973-1.79V0l2.957 5.193Z" fill="#FAB718"/><path d="m19.853 6.854-5.688.005-2.794-1.666L8.414 0l11.439 6.854Z" fill="#ED6F26"/><path d="M11.387 18.802v-3.338L8.414 13.71 8.416 24l2.97-5.198Z" fill="#63B22F"/><path d="M14.16 17.147 2.965 10.42 0 5.224 19.841 17.14l-5.682.007Z" fill="#1487C9"/><path d="m8.416 24 2.97-5.199 2.773-1.654 5.682-.006L8.416 24Z" fill="#017F36"/><path d="m.003 18.773 8.435-5.064-2.836-1.706-2.637 1.585-2.962 5.185Z" fill="#984995"/></svg>