<?xml version="1.0" encoding="utf-8"?>
<!-- Generator: Adobe Illustrator 18.1.1, SVG Export Plug-In . SVG Version: 6.00 Build 0)  -->
<svg version="1.1" id="Layer_1" xmlns="http://www.w3.org/2000/svg" xmlns:xlink="http://www.w3.org/1999/xlink" x="0px" y="0px"
	 viewBox="0 0 100 70" enable-background="new 0 0 100 70" xml:space="preserve">
<path fill="#FFFFFF" d="M72.4,1.1C72.3,1,72,1,71.8,1.1c-6.5,4.5-23-0.1-34.7,11.6c-4,4-5.4,7.9-5.4,11.3c0,6.5,5.1,11,5.4,11.4
	c0,0,0.1,0.1,0.1,0.1l-3.3,2.7l0.8,0.8l0.8,0.8l2.7-3.4c0,0,0,0,0.1,0.1c0.4,0.3,4.8,5.4,11.3,5.4h0c3.4,0,7.2-1.4,11.3-5.4
	C72.6,24.7,68.6,8.9,72.5,1.7C72.6,1.5,72.6,1.3,72.4,1.1z M69.5,10.9c-0.6-0.2-1.3-0.5-2-0.7c-1-0.4-2.1-0.8-3.2-1.2
	c-0.7,0.7-1.4,1.4-1.9,1.9c-0.6,0.6-1.1,1.1-1.7,1.7c-0.5,0.5-1.1,1.1-1.7,1.7c-0.6,0.6-1.2,1.2-2,2c1.1,0.4,2.1,0.8,3.1,1.1
	c1,0.4,2,0.7,2.9,1c1,0.3,1.9,0.6,2.8,1c0.8,0.3,1.5,0.5,2.3,0.7c-0.6,2.9-1.5,5.8-3,8.6c-0.6-0.2-1.2-0.3-1.8-0.5
	c-0.8-0.3-1.7-0.5-2.6-0.8c-0.9-0.3-1.7-0.5-2.6-0.8c-0.9-0.3-1.8-0.6-2.7-0.9c-0.9-0.3-1.9-0.6-2.8-1c-1-0.3-2-0.7-3-1.1
	c-0.7,0.7-1.4,1.4-2,2c-0.6,0.6-1.2,1.2-1.7,1.7c-0.6,0.6-1.1,1.1-1.7,1.7c-0.6,0.6-1.3,1.3-2,2c1,0.4,2,0.7,3,1.1
	c1,0.3,1.9,0.7,2.9,1c0.9,0.3,1.9,0.6,2.8,0.9c0.9,0.3,1.8,0.5,2.7,0.8c0.9,0.3,1.8,0.5,2.6,0.7c0.9,0.2,1.7,0.5,2.6,0.7
	c0.2,0,0.3,0.1,0.5,0.1c-3.5,3.2-6.8,4.3-9.7,4.3c-6,0-10.3-4.7-10.7-5.1c-0.2-0.2-0.4-0.4-0.6-0.6l0.1-0.1c0.6-0.6,1.1-1.1,1.7-1.7
	c0.6-0.6,1.3-1.3,2-2c-0.3-1-0.6-2-0.9-3c-0.3-1-0.5-1.9-0.8-2.9c-0.2-0.9-0.5-1.9-0.7-2.8c-0.2-0.9-0.4-1.8-0.6-2.7
	c-0.2-0.9-0.4-1.8-0.6-2.6c-0.2-0.9-0.4-1.7-0.5-2.6c-0.1-0.5-0.2-1-0.3-1.5c2.4-2.4,5-4,7.6-5.3c0.1,0.5,0.2,0.9,0.3,1.4
	c0.2,0.9,0.4,1.8,0.6,2.7c0.2,0.9,0.5,1.8,0.7,2.8c0.2,0.9,0.5,1.9,0.8,2.9c0.3,1,0.5,2,0.8,3c0.3,1,0.6,2.1,0.9,3.1
	c0.7-0.7,1.4-1.4,2-2c0.6-0.6,1.1-1.1,1.7-1.7c0.5-0.6,1.1-1.1,1.7-1.7c0.6-0.6,1.2-1.2,2-2c-0.3-1.1-0.7-2.2-1-3.3
	c-0.3-1.1-0.6-2.1-0.9-3.1c-0.3-1-0.5-2-0.8-3c-0.2-0.6-0.3-1.2-0.4-1.7c3.1-0.6,6.1-0.8,8.9-1.1c0.1,0.5,0.3,1,0.4,1.6
	c0.3,1.1,0.6,2.2,1,3.4c0.7-0.7,1.3-1.3,1.9-1.9c0.6-0.6,1.1-1.1,1.7-1.7c0.5-0.5,1.1-1.1,1.7-1.7c0.5-0.5,1-1,1.5-1.5
	c0,0,0.1,0,0.1-0.1C70.2,4.7,69.8,7.7,69.5,10.9z"/>
<path fill="#FFFFFF" d="M2.7,63.5c0.1-0.1,0.1-0.2,0.2-0.2c0.1,0,0.3,0.1,0.5,0.2C4.2,64,4.8,64,5,64c1.3,0,1.8-0.8,2-1.4
	C7.3,62,7.5,61,7.5,60.3V60H5c-0.2,0-0.4,0.1-0.4-0.4v-1.3c0-0.2,0-0.4,0.4-0.4h2.5v-0.3c0-1-0.3-2.1-0.8-2.7
	c-0.3-0.4-0.8-0.6-1.5-0.6c-0.7,0-1.1,0.2-1.7,0.7c-0.1,0.1-0.3,0.2-0.4,0.2c-0.1,0-0.2-0.1-0.2-0.2L2.2,54
	c-0.1-0.1-0.1-0.2-0.1-0.2c0-0.1,0.1-0.2,0.4-0.5c0.9-0.8,2.1-1,2.9-1c2,0,4.8,1.2,4.8,7c0,2.6-0.6,6.8-5,6.8c-1.1,0-2.3-0.3-3-0.9
	C2.2,65.1,2,65,2,64.9c0-0.1,0.1-0.2,0.1-0.3L2.7,63.5z"/>
<path fill="#FFFFFF" d="M25.3,66.1c-4.7,0-4.8-5.5-4.8-6.9c0-1.4,0.1-6.9,4.8-6.9c4.7,0,4.8,5.5,4.8,6.9
	C30.1,60.6,30,66.1,25.3,66.1 M27.4,59.2c0-1.9-0.2-4.8-2.1-4.8c-1.8,0-2.1,3-2.1,4.8c0,1.6,0.1,4.8,2.1,4.8
	C27.3,64,27.4,60.8,27.4,59.2"/>
<path fill="#FFFFFF" d="M38.4,52.6h-7.7c-0.3,0-0.3,0.2-0.3,0.3v1.7c0,0.1,0,0.3,0.3,0.3h2.6v10.5c0,0.2,0,0.4,0.4,0.4h1.8
	c0.2,0,0.4,0,0.4-0.4V54.9h2.6c0.3,0,0.3-0.2,0.3-0.3v-1.7C38.7,52.8,38.7,52.6,38.4,52.6"/>
<path fill="#FFFFFF" d="M46.6,54.7c0.2,0,0.4,0,0.4-0.4V53c0-0.3-0.2-0.4-0.4-0.4h-6.2c-0.2,0-0.4,0-0.4,0.4v12.4
	c0,0.2,0,0.4,0.4,0.4h6.2c0.2,0,0.4,0,0.4-0.4v-1.3c0-0.3-0.2-0.4-0.4-0.4h-4v-3.7h2.6c0.2,0,0.4,0,0.4-0.4v-1.3
	c0-0.2,0-0.4-0.4-0.4h-2.6v-3.2H46.6z"/>
<path fill="#FFFFFF" d="M64.8,54.7c0.2,0,0.4,0,0.4-0.4V53c0-0.3-0.2-0.4-0.4-0.4h-6.2c-0.2,0-0.4,0-0.4,0.4v12.4
	c0,0.2,0,0.4,0.4,0.4h6.2c0.2,0,0.4,0,0.4-0.4v-1.3c0-0.3-0.2-0.4-0.4-0.4h-4v-3.7h2.6c0.2,0,0.4,0,0.4-0.4v-1.3
	c0-0.2,0-0.4-0.4-0.4h-2.6v-3.2H64.8z"/>
<path fill="#FFFFFF" d="M80.3,66.1c-4.7,0-4.8-5.5-4.8-6.9c0-1.4,0.1-6.9,4.8-6.9c4.7,0,4.8,5.5,4.8,6.9
	C85.1,60.6,85,66.1,80.3,66.1 M82.4,59.2c0-1.9-0.2-4.8-2.1-4.8c-1.8,0-2.1,3-2.1,4.8c0,1.6,0.1,4.8,2.1,4.8
	C82.3,64,82.4,60.8,82.4,59.2"/>
<path fill="#FFFFFF" d="M89.6,58.8c-0.1-0.3-0.4-1.5-0.7-3h-0.1c0,2.6,0,3.3,0,3.9l-0.2,5.7c0,0.3,0,0.4-0.3,0.4h-1.6
	c-0.2,0-0.3-0.1-0.3-0.4L87,53c0-0.3,0.1-0.4,0.3-0.4h2c0.2,0,0.2,0,0.3,0.3l1.6,4.8c0.2,0.7,0.5,1.9,0.6,2.3h0
	c0.1-0.9,0.3-1.4,0.6-2.3l1.6-4.8c0.1-0.2,0.1-0.3,0.3-0.3h2c0.3,0,0.4,0,0.4,0.6l0.5,12.1c0,0.3-0.1,0.4-0.3,0.4h-1.9
	c-0.2,0-0.3-0.1-0.3-0.4l-0.2-6.5c0-0.4,0-0.6,0-1.1v-0.4v-1.5h-0.1c-0.2,1.2-0.4,2.1-0.7,3l-1.2,3.7c-0.1,0.2-0.1,0.3-0.3,0.3H91
	c-0.3,0-0.3-0.2-0.3-0.3L89.6,58.8z"/>
<path fill="#FFFFFF" d="M20,65.2c0-0.3-1-3.8-1.1-4.3c-0.1-0.5-0.4-1.5-1.7-2v-0.1c1-0.3,1.3-0.9,1.5-1.8c0.2-0.8,0.8-3.3,1-4.2
	c0-0.2,0-0.3-0.3-0.3h-2c-0.1,0-0.2,0.1-0.2,0.2c0,0.1-0.3,2.5-0.5,3.7c-0.2,1.1-0.7,1.4-1.6,1.4h-0.7V53c0-0.4-0.2-0.4-0.4-0.4H12
	c-0.2,0-0.4,0-0.4,0.4v12.4c0,0.4,0.2,0.4,0.4,0.4h1.8c0.2,0,0.4,0,0.4-0.4V60h0.8c1.2,0,1.4,0.8,1.5,1.3c0.1,0.5,0.6,3.9,0.7,4.1
	c0.1,0.3,0.2,0.4,0.5,0.4h1.9C19.9,65.8,20,65.5,20,65.2"/>
<path fill="#FFFFFF" d="M75,65.2c-0.1-0.3-1-3.8-1.1-4.3c-0.1-0.5-0.4-1.5-1.7-2v-0.1c1-0.3,1.3-0.9,1.5-1.8c0.2-0.8,0.8-3.3,1-4.2
	c0-0.2,0-0.3-0.3-0.3h-2c-0.1,0-0.2,0.1-0.2,0.2c0,0.1-0.3,2.5-0.5,3.7c-0.2,1.1-0.7,1.4-1.6,1.4h-0.7V53c0-0.4-0.2-0.4-0.4-0.4
	h-1.8c-0.2,0-0.4,0-0.4,0.4v12.4c0,0.4,0.2,0.4,0.4,0.4h1.8c0.2,0,0.4,0,0.4-0.4V60h0.8c1.2,0,1.4,0.8,1.5,1.3
	c0.1,0.5,0.6,3.9,0.7,4.1c0.1,0.3,0.2,0.4,0.5,0.4h1.8C74.9,65.8,75.1,65.5,75,65.2"/>
<path fill="#FFFFFF" d="M56.1,52.6h-4.1c-0.7,0-1.1,0.3-1.3,1c-0.2,0.7-2.7,11.3-2.8,11.6c-0.1,0.3,0.1,0.6,0.4,0.6h1.9
	c0.3,0,0.4-0.1,0.5-0.4c0-0.2,2-10.4,2-10.4h1.1v10.5c0,0.2,0,0.4,0.4,0.4H56c0.2,0,0.4,0,0.4-0.4V53C56.4,52.7,56.2,52.6,56.1,52.6
	"/>
</svg>
