<svg id="visual" viewBox="0 0 960 100" width="960" height="100" xmlns="http://www.w3.org/2000/svg" xmlns:xlink="http://www.w3.org/1999/xlink" version="1.1"><path d="M0 77L22.8 77.2C45.7 77.3 91.3 77.7 137 77C182.7 76.3 228.3 74.7 274 75C319.7 75.3 365.3 77.7 411.2 76.5C457 75.3 503 70.7 548.8 71.5C594.7 72.3 640.3 78.7 686 82C731.7 85.3 777.3 85.7 823 82.2C868.7 78.7 914.3 71.3 937.2 67.7L960 64L960 101L937.2 101C914.3 101 868.7 101 823 101C777.3 101 731.7 101 686 101C640.3 101 594.7 101 548.8 101C503 101 457 101 411.2 101C365.3 101 319.7 101 274 101C228.3 101 182.7 101 137 101C91.3 101 45.7 101 22.8 101L0 101Z" fill="#FFFFFF" stroke-linecap="round" stroke-linejoin="miter"></path></svg>