<svg id="visual" viewBox="0 0 960 540" width="960" height="540" xmlns="http://www.w3.org/2000/svg" xmlns:xlink="http://www.w3.org/1999/xlink" version="1.1"><rect x="0" y="0" width="960" height="540" fill="#002233"></rect><path d="M0 423L22.8 423.3C45.7 423.7 91.3 424.3 137 420.2C182.7 416 228.3 407 274 408.7C319.7 410.3 365.3 422.7 411.2 416.2C457 409.7 503 384.3 548.8 389.2C594.7 394 640.3 429 686 446.8C731.7 464.7 777.3 465.3 823 446.2C868.7 427 914.3 388 937.2 368.5L960 349L960 541L937.2 541C914.3 541 868.7 541 823 541C777.3 541 731.7 541 686 541C640.3 541 594.7 541 548.8 541C503 541 457 541 411.2 541C365.3 541 319.7 541 274 541C228.3 541 182.7 541 137 541C91.3 541 45.7 541 22.8 541L0 541Z" fill="#FFFFFF" stroke-linecap="round" stroke-linejoin="miter"></path></svg>