<svg id="visual" viewBox="0 0 960 100" width="960" height="100" xmlns="http://www.w3.org/2000/svg" xmlns:xlink="http://www.w3.org/1999/xlink" version="1.1"><path d="M0 66L22.8 66.5C45.7 67 91.3 68 137 69.2C182.7 70.3 228.3 71.7 274 71.3C319.7 71 365.3 69 411.2 68.5C457 68 503 69 548.8 69C594.7 69 640.3 68 686 67.2C731.7 66.3 777.3 65.7 823 64.7C868.7 63.7 914.3 62.3 937.2 61.7L960 61L960 101L937.2 101C914.3 101 868.7 101 823 101C777.3 101 731.7 101 686 101C640.3 101 594.7 101 548.8 101C503 101 457 101 411.2 101C365.3 101 319.7 101 274 101C228.3 101 182.7 101 137 101C91.3 101 45.7 101 22.8 101L0 101Z" fill="#ffffff"></path><path d="M0 70L22.8 70.2C45.7 70.3 91.3 70.7 137 71.3C182.7 72 228.3 73 274 72.5C319.7 72 365.3 70 411.2 70.3C457 70.7 503 73.3 548.8 73.3C594.7 73.3 640.3 70.7 686 70.5C731.7 70.3 777.3 72.7 823 72.2C868.7 71.7 914.3 68.3 937.2 66.7L960 65L960 101L937.2 101C914.3 101 868.7 101 823 101C777.3 101 731.7 101 686 101C640.3 101 594.7 101 548.8 101C503 101 457 101 411.2 101C365.3 101 319.7 101 274 101C228.3 101 182.7 101 137 101C91.3 101 45.7 101 22.8 101L0 101Z" fill="#ffffff"></path><path d="M0 74L22.8 74.7C45.7 75.3 91.3 76.7 137 77.5C182.7 78.3 228.3 78.7 274 79.2C319.7 79.7 365.3 80.3 411.2 80C457 79.7 503 78.3 548.8 77.3C594.7 76.3 640.3 75.7 686 76.5C731.7 77.3 777.3 79.7 823 79.7C868.7 79.7 914.3 77.3 937.2 76.2L960 75L960 101L937.2 101C914.3 101 868.7 101 823 101C777.3 101 731.7 101 686 101C640.3 101 594.7 101 548.8 101C503 101 457 101 411.2 101C365.3 101 319.7 101 274 101C228.3 101 182.7 101 137 101C91.3 101 45.7 101 22.8 101L0 101Z" fill="#ffffff"></path><path d="M0 85L22.8 84.7C45.7 84.3 91.3 83.7 137 83.3C182.7 83 228.3 83 274 82.8C319.7 82.7 365.3 82.3 411.2 82.8C457 83.3 503 84.7 548.8 85.2C594.7 85.7 640.3 85.3 686 85.8C731.7 86.3 777.3 87.7 823 87.3C868.7 87 914.3 85 937.2 84L960 83L960 101L937.2 101C914.3 101 868.7 101 823 101C777.3 101 731.7 101 686 101C640.3 101 594.7 101 548.8 101C503 101 457 101 411.2 101C365.3 101 319.7 101 274 101C228.3 101 182.7 101 137 101C91.3 101 45.7 101 22.8 101L0 101Z" fill="#ffffff"></path><path d="M0 94L22.8 93.5C45.7 93 91.3 92 137 91.2C182.7 90.3 228.3 89.7 274 89.3C319.7 89 365.3 89 411.2 89.2C457 89.3 503 89.7 548.8 89.3C594.7 89 640.3 88 686 87.7C731.7 87.3 777.3 87.7 823 88C868.7 88.3 914.3 88.7 937.2 88.8L960 89L960 101L937.2 101C914.3 101 868.7 101 823 101C777.3 101 731.7 101 686 101C640.3 101 594.7 101 548.8 101C503 101 457 101 411.2 101C365.3 101 319.7 101 274 101C228.3 101 182.7 101 137 101C91.3 101 45.7 101 22.8 101L0 101Z" fill="#ffffff"></path></svg>