<svg width="40" height="40" viewBox="0 0 40 40" fill="none" xmlns="http://www.w3.org/2000/svg">
<path d="M39.8378 0.0733945C39.7399 -0.0244648 39.4463 -0.0244648 39.2505 0.0733945C32.8882 4.47706 16.7378 -0.0244646 5.28561 11.4251C1.37034 15.3394 0 19.156 0 22.4832C0 28.844 4.99196 33.2477 5.28561 33.6391L5.38349 33.737L2.1534 36.3792L2.93645 37.1621L3.7195 37.945L6.36231 34.6177C6.36231 34.6177 6.3623 34.6177 6.46019 34.7156C6.85171 35.0092 11.1585 40 17.5208 40C20.8488 40 24.5683 38.63 28.5814 34.7156C40.0336 23.1682 36.1183 7.70642 39.9357 0.66055C40.0336 0.464832 40.0336 0.269113 39.8378 0.0733945ZM36.9993 9.66361C36.412 9.46789 35.7268 9.17431 35.0416 8.97859C34.0628 8.58716 32.9861 8.19572 31.9094 7.80428C31.2242 8.4893 30.5391 9.17431 30.0497 9.66361C29.4624 10.2508 28.973 10.7401 28.3857 11.3272C27.8963 11.8165 27.309 12.4037 26.7217 12.9908C26.1344 13.578 25.5471 14.1651 24.7641 14.948C25.8408 15.3394 26.8196 15.7309 27.7984 16.0245C28.7772 16.4159 29.756 16.7095 30.6369 17.0031C31.6158 17.2966 32.4967 17.5902 33.3776 17.9817C34.1607 18.2752 34.8459 18.4709 35.6289 18.6667C35.0416 21.5046 34.1607 24.3425 32.6925 27.0826C32.1052 26.8869 31.5179 26.789 30.9306 26.5933C30.1475 26.2997 29.2666 26.104 28.3857 25.8104C27.5047 25.5168 26.7217 25.3211 25.8407 25.0275C24.9598 24.7339 24.0789 24.4404 23.1979 24.1468C22.317 23.8532 21.3382 23.5596 20.4573 23.1682C19.4784 22.8746 18.4996 22.4832 17.5208 22.0917C16.8356 22.7768 16.1505 23.4618 15.5632 24.0489C14.9759 24.6361 14.3886 25.2232 13.8992 25.7125C13.3119 26.2997 12.8225 26.789 12.2352 27.3761C11.6479 27.9633 10.9627 28.6483 10.2776 29.3333C11.2564 29.7248 12.2352 30.0183 13.214 30.4098C14.1928 30.7034 15.0738 31.0948 16.0526 31.3884C16.9335 31.682 17.9123 31.9755 18.7933 32.2691C19.6742 32.5627 20.5551 32.7584 21.4361 33.052C22.317 33.3456 23.1979 33.5413 23.981 33.737C24.8619 33.9327 25.645 34.2263 26.5259 34.422C26.7217 34.422 26.8196 34.5199 27.0153 34.5199C23.5895 37.6514 20.3594 38.7278 17.5208 38.7278C11.6479 38.7278 7.439 34.1284 7.04748 33.737C6.85171 33.5413 6.65595 33.3456 6.46019 33.1498L6.55807 33.052C7.14536 32.4648 7.63476 31.9755 8.22205 31.3884C8.80934 30.8012 9.49452 30.1162 10.1797 29.4312C9.88604 28.4526 9.5924 27.474 9.29875 26.4954C9.00511 25.5168 8.80935 24.6361 8.5157 23.6575C8.31994 22.7768 8.02629 21.7982 7.83053 20.9174C7.63477 20.0367 7.439 19.156 7.24324 18.2752C7.04748 17.3945 6.85171 16.5138 6.65595 15.7309C6.46019 14.8502 6.26442 14.0673 6.16654 13.1865C6.06866 12.6972 5.97078 12.208 5.8729 11.7187C8.22206 9.37003 10.767 7.80428 13.3119 6.53211C13.4098 7.02141 13.5077 7.41284 13.6055 7.90214C13.8013 8.78288 13.9971 9.66361 14.1928 10.5443C14.3886 11.4251 14.6822 12.3058 14.878 13.2844C15.0738 14.1651 15.3674 15.1437 15.6611 16.1223C15.9547 17.1009 16.1505 18.0795 16.4441 19.0581C16.7378 20.0367 17.0314 21.1132 17.3251 22.0917C18.0102 21.4067 18.6954 20.7217 19.2827 20.1346C19.87 19.5474 20.3594 19.0581 20.9467 18.4709C21.4361 17.8838 22.0234 17.3945 22.6107 16.8073C23.1979 16.2202 23.7852 15.633 24.5683 14.8502C24.2746 13.7737 23.8831 12.6972 23.5895 11.6208C23.2958 10.5443 23.0022 9.56575 22.7085 8.58716C22.4149 7.60856 22.2191 6.62997 21.9255 5.65138C21.7297 5.06422 21.6318 4.47706 21.534 3.98777C24.5683 3.40061 27.5047 3.20489 30.2454 2.91131C30.3433 3.40061 30.5391 3.88991 30.6369 4.47706C30.9306 5.55352 31.2242 6.62997 31.6158 7.80428C32.3009 7.11927 32.8882 6.53211 33.4755 5.94495C34.0628 5.3578 34.5522 4.8685 35.1395 4.28135C35.6289 3.79205 36.2162 3.20489 36.8035 2.61774C37.2929 2.12844 37.7823 1.63914 38.2717 1.14985C38.2717 1.14985 38.3696 1.14985 38.3696 1.05199C37.6844 3.59633 37.2929 6.53211 36.9993 9.66361Z" fill="white"/>
</svg>
