<svg width="1200" height="199" viewBox="0 0 1200 199" fill="none" xmlns="http://www.w3.org/2000/svg">
<path fill-rule="evenodd" clip-rule="evenodd" d="M1200 76.0126L1183 92.411C1167 108.809 1133 141.606 1100 121.108C1067 100.61 1033 26.8177 1000 6.31981C967 -14.1781 933 18.6185 900 55.5147C867 92.411 833 133.407 800 133.407C767 133.407 733 92.411 700 88.3114C667 84.2118 633 117.008 600 125.208C567 133.407 533 117.008 500 125.208C467 133.407 433 166.203 400 158.004C367 149.805 333 100.61 300 71.9131C267 43.216 233 35.0169 200 39.1164C167 43.216 133 59.6143 100 67.8135C67 76.0126 33 76.0126 17 76.0126H0V199H17C33 199 67 199 100 199C133 199 167 199 200 199C233 199 267 199 300 199C333 199 367 199 400 199C433 199 467 199 500 199C533 199 567 199 600 199C633 199 667 199 700 199C733 199 767 199 800 199C833 199 867 199 900 199C933 199 967 199 1000 199C1033 199 1067 199 1100 199C1133 199 1167 199 1183 199H1200V76.0126Z" fill="white"/>
</svg>
